<?xml version="1.0" encoding="utf-8"?>
<!-- Generator: Adobe Illustrator 21.1.0, SVG Export Plug-In . SVG Version: 6.00 Build 0)  -->
<svg version="1.1" id="Camada_1" xmlns="http://www.w3.org/2000/svg" xmlns:xlink="http://www.w3.org/1999/xlink" x="0px" y="0px"
	 viewBox="0 0 198.7 69.9" style="enable-background:new 0 0 198.7 69.9;" xml:space="preserve">
<style type="text/css">
	.st0{fill:#35907C;}
	.st1{fill:#0E2338;}
	.st2{fill:#FFFFFF;}
</style>
<g>
	<circle class="st0" cx="33.8" cy="35" r="7.7"/>
	<path id="M" class="st1" d="M72.5,20.2c-1.2,0-2.2,1-2.2,2.2v3.3c-2.8-3.3-6.7-5.5-11.3-5.5c-5.2,0-9.8,2.8-12.4,7.1
		c-2.6-4.2-7.1-7.1-12.4-7.1c-4.4,0-8.6,2-11.3,5.5v-3.3c0-1.2-1-2.2-2.2-2.2s-2.2,1-2.2,2.2v27.5c0,1.2,1,2.2,2.2,2.2
		s2.2-1,2.2-2.2V35c0-5.9,4.7-10.7,10.7-10.7c5.9,0,10.8,4.7,10.8,10.6c0,0,0,0.1,0,0.1l0,8.2c0,1.2,1,2.2,2.2,2.2s2.2-1,2.2-2.2
		l0,0v-8.4c0-5.6,4.8-10.5,10.6-10.5S70,29,70.3,34.7v15.1c0,1.2,1,2.1,2.2,2.1c1.1,0,2.1-1,2.1-2.1V22.4
		C74.6,21.2,73.6,20.2,72.5,20.2z"/>
	<circle class="st1" cx="33.8" cy="35" r="3.8"/>
	<circle class="st2" cx="30.9" cy="32.6" r="2.2"/>
	<circle class="st0" cx="59.5" cy="35" r="7.7"/>
	<circle class="st1" cx="59.5" cy="35" r="3.8"/>
	<circle class="st2" cx="56.7" cy="32.6" r="2.2"/>
	<path class="st1" d="M81.1,27.2L81.1,27.2c1.2,0,2.2,1,2.2,2.2v20.5c0,1.2-1,2.2-2.2,2.2h0c-1.2,0-2.2-1-2.2-2.2V29.3
		C78.9,28.1,79.9,27.2,81.1,27.2z"/>
	<path class="st1" d="M89.7,20.2L89.7,20.2c1.2,0,2.2,1,2.2,2.2v27.5c0,1.2-1,2.2-2.2,2.2h0c-1.2,0-2.2-1-2.2-2.2V22.4
		C87.6,21.2,88.6,20.2,89.7,20.2z"/>
	<path class="st1" d="M120.1,20.3c-1.1-0.4-2.3,0.3-2.7,1.4l-8.4,23.2l-8.4-23.2c-0.4-1.1-1.6-1.8-2.7-1.4c-1.1,0.4-1.8,1.6-1.4,2.7
		c0,0,0,0,0,0.1l9.8,27c0.4,1.1,1.5,1.9,2.7,1.9l0,0c1.2,0,2.3-0.8,2.7-1.9l9.8-26.9C121.8,22,121.3,20.7,120.1,20.3
		C120.1,20.3,120.1,20.3,120.1,20.3z"/>
	<path class="st1" d="M149.1,20.2c-0.5,0-1,0.2-1.4,0.5c-0.1,0.1-0.2,0.2-0.3,0.3c-0.3,0.4-0.5,0.9-0.5,1.4v16.9
		c0,4.6-3.7,8.3-8.3,8.3l0,0c-4.6,0-8.3-3.7-8.3-8.3V22.4c0-1.2-1-2.2-2.2-2.2c-1.2,0-2.2,1-2.2,2.2v16.9c0,7,5.7,12.7,12.7,12.7
		c0,0,0,0,0,0l0,0c3.1,0,6-1.1,8.3-3.1v1c0,1.2,1,2.2,2.2,2.2c1.2,0,2.2-1,2.2-2.2V22.4C151.2,21.2,150.3,20.2,149.1,20.2
		L149.1,20.2z"/>
	<path class="st1" d="M171.9,33.9h-1.5l0,0h-5.8c-2.6,0-4.7-2.1-4.7-4.7c0-0.1,0-0.1,0-0.2c0.1-2.5,2.3-4.5,4.8-4.5h9.7
		c1.2,0,2.2-1,2.2-2.2s-1-2.2-2.2-2.2l0,0h-9.8c-5,0-9,4-9,9c0,0,0,0,0,0l0,0c0,5,4,9,9,9h3.6l0,0h3.6c2.6,0,4.7,2.1,4.7,4.7
		c0,0,0,0,0,0l0,0c0,2.6-2.1,4.7-4.7,4.7c0,0,0,0,0,0h-14.1c-1.2,0-2.2,1-2.2,2.2c0,1.2,1,2.2,2.2,2.2h14.1c5,0,9-4,9-9c0,0,0,0,0,0
		l0,0C180.9,38,176.8,33.9,171.9,33.9C171.9,33.9,171.9,33.9,171.9,33.9z"/>
	<circle class="st1" cx="81.1" cy="22.4" r="2.2"/>
</g>
</svg>
